<svg width="479" height="479" viewBox="0 0 479 479" fill="none" xmlns="http://www.w3.org/2000/svg">
<mask id="mask0_211_15" style="mask-type:alpha" maskUnits="userSpaceOnUse" x="0" y="0" width="479" height="479">
<circle cx="239.5" cy="239.5" r="239.5" fill="#EAEAEA"/>
</mask>
<g mask="url(#mask0_211_15)">
<circle cx="239.5" cy="239.5" r="239.5" fill="#EAEAEA"/>
<path d="M402.376 363.795C379.576 324.52 343.082 295.042 299.891 281.013C320.594 268.702 336.682 249.935 345.684 227.594C354.686 205.252 356.105 180.574 349.721 157.348C343.337 134.123 329.504 113.636 310.348 99.0345C291.192 84.4331 267.771 76.5249 243.684 76.5249C219.598 76.5249 196.177 84.4331 177.021 99.0345C157.864 113.636 144.032 134.123 137.648 157.348C131.264 180.574 132.683 205.252 141.685 227.594C150.687 249.935 166.775 268.702 187.478 281.013C144.286 295.042 107.793 324.52 84.9934 363.795C83.874 365.637 83.282 367.75 83.282 369.905C66.5 433.5 79.8806 443.159 81 445C82.0443 446.872 84.6452 451.925 86.5 453C88.3548 454.075 84.3562 494.024 86.5 494L363.5 476.5C365.644 476.524 389.982 431.075 391.837 430C393.692 428.925 389.456 445.372 390.5 443.5C412 451 418 406.5 404.087 369.905C404.087 367.75 403.495 365.637 402.376 363.795Z" fill="#B7B7B7"/>
</g>
</svg>
